<svg width="40" height="40" viewBox="0 0 40 40" fill="none" xmlns="http://www.w3.org/2000/svg">
<path d="M31.5832 31.4999C32.5998 31.4999 33.5749 31.9038 34.2937 32.6227C35.0126 33.3416 35.4165 34.3166 35.4165 35.3333C35.4165 36.3499 35.0126 37.3249 34.2937 38.0438C33.5749 38.7627 32.5998 39.1666 31.5832 39.1666C29.4557 39.1666 27.7498 37.4416 27.7498 35.3333C27.7498 33.2058 29.4557 31.4999 31.5832 31.4999ZM0.916504 0.833252H7.184L8.98567 4.66659H37.3332C37.8415 4.66659 38.329 4.86852 38.6885 5.22796C39.0479 5.58741 39.2498 6.07492 39.2498 6.58325C39.2498 6.90909 39.154 7.23492 39.0198 7.54159L32.1582 19.9424C31.5065 21.1116 30.2415 21.9166 28.804 21.9166H14.5248L12.7998 25.0408L12.7423 25.2708C12.7423 25.3978 12.7928 25.5197 12.8827 25.6096C12.9725 25.6994 13.0944 25.7499 13.2215 25.7499H35.4165V29.5833H12.4165C10.289 29.5833 8.58317 27.8583 8.58317 25.7499C8.58317 25.0791 8.75567 24.4466 9.04317 23.9099L11.6498 19.2141L4.74984 4.66659H0.916504V0.833252ZM12.4165 31.4999C13.4332 31.4999 14.4082 31.9038 15.1271 32.6227C15.846 33.3416 16.2498 34.3166 16.2498 35.3333C16.2498 36.3499 15.846 37.3249 15.1271 38.0438C14.4082 38.7627 13.4332 39.1666 12.4165 39.1666C10.289 39.1666 8.58317 37.4416 8.58317 35.3333C8.58317 33.2058 10.289 31.4999 12.4165 31.4999ZM29.6665 18.0833L34.9948 8.49992H10.7682L15.2915 18.0833H29.6665Z" fill="black"/>
</svg>
